{
  "accessors": [
    {
      "bufferView": 2,
      "componentType": 5126,
      "count": 832,
      "max": [
        0.15929999947547913,
        0.02906000055372715,
        0.1883700042963028
      ],
      "min": [
        -0.15929999947547913,
        -0.02906000055372715,
        -0.13023999333381653
      ],
      "type": "VEC3"
    },
    {
      "bufferView": 2,
      "byteOffset": 9984,
      "componentType": 5126,
      "count": 832,
      "max": [
        1.0,
        1.0,
        1.0
      ],
      "min": [
        -1.0,
        -1.0,
        -1.0
      ],
      "type": "VEC3"
    },
    {
      "bufferView": 1,
      "componentType": 5126,
      "count": 832,
      "max": [
        0.8030800223350525,
        0.958079993724823
      ],
      "min": [
        0.09342999756336212,
        0.6756700277328491
      ],
      "type": "VEC2"
    },
    {
      "bufferView": 1,
      "byteOffset": 6656,
      "componentType": 5126,
      "count": 832,
      "max": [
        0.8030800223350525,
        0.958079993724823
      ],
      "min": [
        0.09342999756336212,
        0.6756700277328491
      ],
      "type": "VEC2"
    },
    {
      "bufferView": 0,
      "componentType": 5125,
      "count": 1368,
      "type": "SCALAR"
    },
    {
      "bufferView": 2,
      "byteOffset": 19968,
      "componentType": 5126,
      "count": 24,
      "max": [
        0.004029999952763319,
        0.00011999999696854502,
        0.08536999672651291
      ],
      "min": [
        -0.004029999952763319,
        -0.003590000094845891,
        -0.01923999935388565
      ],
      "type": "VEC3"
    },
    {
      "bufferView": 2,
      "byteOffset": 20256,
      "componentType": 5126,
      "count": 24,
      "max": [
        1.0,
        1.0,
        1.0
      ],
      "min": [
        -1.0,
        -1.0,
        -1.0
      ],
      "type": "VEC3"
    },
    {
      "bufferView": 1,
      "byteOffset": 13312,
      "componentType": 5126,
      "count": 24,
      "max": [
        0.6701499819755554,
        0.9501500129699707
      ],
      "min": [
        0.5398499965667725,
        0.8198500275611877
      ],
      "type": "VEC2"
    },
    {
      "bufferView": 1,
      "byteOffset": 13504,
      "componentType": 5126,
      "count": 24,
      "max": [
        0.6701499819755554,
        0.9501500129699707
      ],
      "min": [
        0.5398499965667725,
        0.8198500275611877
      ],
      "type": "VEC2"
    },
    {
      "bufferView": 0,
      "byteOffset": 5472,
      "componentType": 5125,
      "count": 36,
      "type": "SCALAR"
    },
    {
      "bufferView": 2,
      "byteOffset": 20544,
      "componentType": 5126,
      "count": 24,
      "max": [
        0.0027000000700354576,
        0.00406000018119812,
        0.11034999787807465
      ],
      "min": [
        -0.0027000000700354576,
        0.0015699999639764428,
        -0.01923999935388565
      ],
      "type": "VEC3"
    },
    {
      "bufferView": 2,
      "byteOffset": 20832,
      "componentType": 5126,
      "count": 24,
      "max": [
        1.0,
        1.0,
        1.0
      ],
      "min": [
        -1.0,
        -1.0,
        -1.0
      ],
      "type": "VEC3"
    },
    {
      "bufferView": 1,
      "byteOffset": 13696,
      "componentType": 5126,
      "count": 24,
      "max": [
        0.6827499866485596,
        0.9402499794960022
      ],
      "min": [
        0.5422499775886536,
        0.7997599840164185
      ],
      "type": "VEC2"
    },
    {
      "bufferView": 1,
      "byteOffset": 13888,
      "componentType": 5126,
      "count": 24,
      "max": [
        0.6827499866485596,
        0.9402499794960022
      ],
      "min": [
        0.5422499775886536,
        0.7997599840164185
      ],
      "type": "VEC2"
    },
    {
      "bufferView": 0,
      "byteOffset": 5616,
      "componentType": 5125,
      "count": 36,
      "type": "SCALAR"
    },
    {
      "bufferView": 3,
      "componentType": 5126,
      "count": 240,
      "max": [
        10.0
      ],
      "min": [
        0.041669998317956924
      ],
      "type": "SCALAR"
    },
    {
      "bufferView": 4,
      "componentType": 5126,
      "count": 240,
      "max": [
        0.0,
        1.0,
        0.0,
        1.0
      ],
      "min": [
        0.0,
        -0.9999099969863892,
        0.0,
        -0.0
      ],
      "type": "VEC4"
    },
    {
      "bufferView": 3,
      "byteOffset": 960,
      "componentType": 5126,
      "count": 240,
      "max": [
        10.0
      ],
      "min": [
        0.041669998317956924
      ],
      "type": "SCALAR"
    },
    {
      "bufferView": 4,
      "byteOffset": 3840,
      "componentType": 5126,
      "count": 240,
      "max": [
        0.0,
        1.0,
        0.0,
        1.0
      ],
      "min": [
        0.0,
        -0.9876899719238281,
        0.0,
        -0.0
      ],
      "type": "VEC4"
    }
  ],
  "animations": [
    {
      "channels": [
        {
          "sampler": 0,
          "target": {
            "node": 6,
            "path": "rotation"
          }
        },
        {
          "sampler": 1,
          "target": {
            "node": 8,
            "path": "rotation"
          }
        }
      ],
      "name": "Take 01",
      "samplers": [
        {
          "input": 15,
          "interpolation": "LINEAR",
          "output": 16
        },
        {
          "input": 17,
          "interpolation": "LINEAR",
          "output": 18
        }
      ]
    }
  ],
  "asset": {
    "extras": {
      "author": "game_travel (https://sketchfab.com/game_travel)",
      "license": "CC-BY-4.0 (http://creativecommons.org/licenses/by/4.0/)",
      "source": "https://sketchfab.com/3d-models/clock-low-poly-a8bf334c411b4acaa2dcfc827f28ebf6",
      "title": "Clock (Low Poly)"
    },
    "generator": "Sketchfab-12.65.0",
    "version": "2.0"
  },
  "bufferViews": [
    {
      "buffer": 0,
      "byteLength": 5760,
      "name": "floatBufferViews",
      "target": 34963
    },
    {
      "buffer": 0,
      "byteLength": 14080,
      "byteOffset": 5760,
      "byteStride": 8,
      "name": "floatBufferViews",
      "target": 34962
    },
    {
      "buffer": 0,
      "byteLength": 21120,
      "byteOffset": 19840,
      "byteStride": 12,
      "name": "floatBufferViews",
      "target": 34962
    },
    {
      "buffer": 0,
      "byteLength": 1920,
      "byteOffset": 40960,
      "name": "floatBufferViews"
    },
    {
      "buffer": 0,
      "byteLength": 7680,
      "byteOffset": 42880,
      "byteStride": 16,
      "name": "floatBufferViews"
    }
  ],
  "buffers": [
    {
      "byteLength": 50560,
      "uri": "scene.bin"
    }
  ],
  "images": [
    {
      "uri": "textures/WhiteAndBlack_baseColor.png"
    }
  ],
  "materials": [
    {
      "doubleSided": true,
      "name": "WhiteAndBlack",
      "pbrMetallicRoughness": {
        "baseColorTexture": {
          "index": 0
        },
        "metallicFactor": 0.0,
        "roughnessFactor": 0.6
      }
    }
  ],
  "meshes": [
    {
      "name": "Obj_Clock_0",
      "primitives": [
        {
          "attributes": {
            "NORMAL": 1,
            "POSITION": 0,
            "TEXCOORD_0": 2,
            "TEXCOORD_1": 3
          },
          "indices": 4,
          "material": 0,
          "mode": 4
        }
      ]
    },
    {
      "name": "Obj_Hand.001_0",
      "primitives": [
        {
          "attributes": {
            "NORMAL": 6,
            "POSITION": 5,
            "TEXCOORD_0": 7,
            "TEXCOORD_1": 8
          },
          "indices": 9,
          "material": 0,
          "mode": 4
        }
      ]
    },
    {
      "name": "Obj_Hand_0",
      "primitives": [
        {
          "attributes": {
            "NORMAL": 11,
            "POSITION": 10,
            "TEXCOORD_0": 12,
            "TEXCOORD_1": 13
          },
          "indices": 14,
          "material": 0,
          "mode": 4
        }
      ]
    }
  ],
  "nodes": [
    {
      "children": [
        1
      ],
      "matrix": [
        1.0,
        0.0,
        0.0,
        0.0,
        0.0,
        2.220446049250313e-16,
        -1.0,
        0.0,
        0.0,
        1.0,
        2.220446049250313e-16,
        0.0,
        0.0,
        0.0,
        0.0,
        1.0
      ],
      "name": "Sketchfab_model"
    },
    {
      "children": [
        2,
        4
      ],
      "name": "Root"
    },
    {
      "children": [
        3
      ],
      "matrix": [
        -0.29086000000000006,
        0.9551700000000001,
        -0.05519000000000001,
        0.0,
        -0.7711,
        -0.19988000000000003,
        0.6045200000000001,
        0.0,
        0.5663900000000001,
        0.21839000000000003,
        0.7946700000000001,
        0.0,
        4.076250000000001,
        1.00545,
        5.903860000000001,
        1.0
      ],
      "name": "Lamp"
    },
    {
      "name": "Lamp"
    },
    {
      "children": [
        5,
        6,
        8
      ],
      "name": "Obj_Clock"
    },
    {
      "mesh": 0,
      "name": "Obj_Clock_0"
    },
    {
      "children": [
        7
      ],
      "name": "Obj_Hand.001",
      "translation": [
        -0.0,
        -0.021719999611377716,
        0.02906000055372715
      ]
    },
    {
      "mesh": 1,
      "name": "Obj_Hand.001_0"
    },
    {
      "children": [
        9
      ],
      "name": "Obj_Hand",
      "translation": [
        -0.0,
        -0.021719999611377716,
        0.02906000055372715
      ]
    },
    {
      "mesh": 2,
      "name": "Obj_Hand_0"
    }
  ],
  "samplers": [
    {
      "magFilter": 9729,
      "minFilter": 9987,
      "wrapS": 10497,
      "wrapT": 10497
    }
  ],
  "scene": 0,
  "scenes": [
    {
      "name": "Sketchfab_Scene",
      "nodes": [
        0
      ]
    }
  ],
  "textures": [
    {
      "sampler": 0,
      "source": 0
    }
  ]
}
